<svg xmlns="http://www.w3.org/2000/svg" xmlns:xlink="http://www.w3.org/1999/xlink" width="86.89" height="83.551" viewBox="0 0 86.89 83.551">
  <defs>
    <clipPath id="clip-Монтажная_область_1">
      <rect width="86.89" height="83.551"/>
    </clipPath>
  </defs>
  <g id="Монтажная_область_1" data-name="Монтажная область 1" clip-path="url(#clip-Монтажная_область_1)">
    <g id="Background">
      <rect id="Rectangle_1" data-name="Rectangle 1" width="841.89" height="1190.551" fill="none"/>
    </g>
    <g id="Elements">
      <g id="Bomb" transform="translate(-466 -131)">
        <path id="Path_64" data-name="Path 64" d="M549.187,146.438c.851-.031,3.421-.044,3.625-.136a36.879,36.879,0,0,0-4.062-2.97c-.008.044.3.166.327.089.485-1.608,2.631-3.549,2.757-3.788a3.622,3.622,0,0,0-.841-.143c-2.258-.143-4.83,1.28-4.993,1.25.242-.545,1.031-2.1,1.312-2.552,1.21-1.937,2.318-3.53,3.571-5.438.2-.3.448-1.254,0-1.222-2.077.146-6.592,3.919-8.59,7.3-.231.272-1.436-.372-1.819-.568a16.089,16.089,0,0,0-2.237-.932c-.569-.19-.87.11-.714.636.364,1.226.734,2.45,1.12,3.669a1.167,1.167,0,0,1-.882,1.547c-1.283.225-2.584.367-3.851.657-.325.074,1.6,2.3,1.963,2.246a10.56,10.56,0,0,0-.539,1.167c-.069.215,2.222-.446,2.916-.755.02.309-.438,2.413-.506,2.983-.06.513-.133,1.025-.194,1.539-.126,1.054-.283,2.106-.349,3.165-.017.268,4.594-4.319,4.736-4.187.377.348,3.413,6.089,3.375,5,.433-2.444.617-3.463,1.125-6.125a23.656,23.656,0,0,0,3.43,2.276C549.447,149.933,548.708,146.455,549.187,146.438Z" fill="#c0392b"/>
        <path id="Path_65" data-name="Path 65" d="M514.046,162.729a1.364,1.364,0,0,1-.045,1.579c-.2.39-.337.816-.572,1.182-.411.641-.118.963.371,1.429a27.812,27.812,0,0,1,5.426,6.8c5.261,9.713.631,19.5.163,20.887a16.426,16.426,0,0,1-2.725,5.036c-.5.625-.908,1.32-1.373,1.973a17.394,17.394,0,0,1-4.456,4.378c-1.764,1.188-9.746,8.124-21.5,5.207a54.671,54.671,0,0,1-5.548-2.022,29.509,29.509,0,0,1-7.505-4.857,27.048,27.048,0,0,1-9.225-19.96,24.554,24.554,0,0,1,.443-4.648,21.423,21.423,0,0,1,2.755-7.486c1.186-1.92,4.562-9.832,16.012-12.168a44.621,44.621,0,0,1,5.59-.839c1.588-.16,3.193-.182,4.792-.2.881-.008,1.764.129,2.634.2a4.075,4.075,0,0,1,1.909-1.989C502.953,156.061,513.45,160.529,514.046,162.729Z" fill="#000"/>
        <path id="Path_66" data-name="Path 66" fill="#000" d="M549.385,143.357c1.29.792,2.485,1.5,3.649,2.26.2.129.267.459.4.7a2.31,2.31,0,0,1-.661.286c-.911.081-1.825.132-2.74.165-.514.018-.62.214-.582.733a15.743,15.743,0,0,0,.819,4.026,14.036,14.036,0,0,1-3.484-1.983c-.546,2.86-.537,4.229-1,6.855.041,1.171-3.345-4.82-3.749-5.194-.153-.142-4.481,4.621-4.932,4.445a1.054,1.054,0,0,1-.443-.861c.071-1.137.239-2.268.374-3.4.066-.551.144-1.1.209-1.653.073-.612.177-2.248.156-2.58-.746.332-1.372.634-2.018.885-.221.086-.8-.468-.728-.7a11.6,11.6,0,0,1,.579-1.254c-1.113.182-10.132-1.5-24.513,10.728a2.953,2.953,0,0,0-.664.634c-.423.71,4.075,2.407,4.7,4.7a1.423,1.423,0,0,1-.046,1.645c-.208.406-.352.85-.6,1.231-.429.668-.124,1,.386,1.489a28.944,28.944,0,0,1,5.652,7.082c5.482,10.119.658,20.319.17,21.76a17.109,17.109,0,0,1-2.839,5.246c-.52.651-.946,1.375-1.43,2.055a18.133,18.133,0,0,1-4.642,4.562c-1.837,1.237-10.153,8.463-22.4,5.424a57.047,57.047,0,0,1-5.78-2.106,30.731,30.731,0,0,1-7.818-5.061,28.175,28.175,0,0,1-9.611-20.794,25.535,25.535,0,0,1,.462-4.842,22.32,22.32,0,0,1,2.87-7.8c1.235-2,4.752-10.243,16.68-12.677a46.486,46.486,0,0,1,5.824-.874c1.654-.167,3.327-.19,4.992-.2.918-.008,1.838.134,2.744.208a4.24,4.24,0,0,1,1.989-2.072c1.833-1.221,7.223.691,7.429.436.355-.438,10.63-9.678,17.912-11.526,2.111-.647,4.265-1.167,6.42-1.66,1.362-.311,2.76-.463,4.138-.706a1.252,1.252,0,0,0,.948-1.661c-.415-1.31-.812-2.626-1.2-3.943-.168-.565.155-.888.767-.683a17.36,17.36,0,0,1,2.4,1c.411.211,1.705.9,1.954.61,2.147-3.638,7.538-7.4,9.77-7.561.481-.034.311.338.1.663q-2.021,3.076-3.971,6.2c-.3.484-1.183,1.842-1.443,2.428a12.991,12.991,0,0,1,4.894-1.02,3.853,3.853,0,0,1,.9.153,5.458,5.458,0,0,1-.413.766c-.841,1.108-1.7,2.2-2.549,3.3C549.363,143.286,549.376,143.4,549.385,143.357Zm-57.478,23.022c-17.386,5.524-15.708,13.081-15.158,13.212,1.784.693,6.683-2.765,7.76-3.443,8.983-4.584,14.209-3.683,16.852-3.76,3.075.422,1.473-3.681-.009-4.726a14.118,14.118,0,0,0-3.7-1.448,10.77,10.77,0,0,0-5.741.165m58.218-26.089a7.42,7.42,0,0,0-4.341,1.357c-1.532-1.21,4.009-8.31,4.545-9.321-.788-.764-6.424,4.55-7.864,7.7-1.128-.532-2.741-1.512-4.023-2.117a10.868,10.868,0,0,0,1.8,4.53l-3.819,3.826a12.821,12.821,0,0,0,2.108-.544.564.564,0,0,1,.713.761,35.085,35.085,0,0,0-.948,5.789c.241-.059,2.335-2.129,3.31-3.016.41-.373.652-.117.826.317.223.552,1.851,3.287,2.393,4.1.151-.816,1.171-5.432,1.356-5.8a17.808,17.808,0,0,0,2.736,1.877l-1.54-3.551,3.507-.706-3.067-1.927Zm-76.9,44.394c-1.258.813-.784,1.98-.477,3.088.237.853,2.089,1.271,2.8.664q1.425-1.212,2.739-2.5c.806-.79.146-1.575-.477-2.289-.64-.733-1.366-.359-1.991-.074-.551.251-1.015.6-1.562.858A5.461,5.461,0,0,1,473.222,184.684Zm28.59-26.6a22.411,22.411,0,0,1,11.031,4.786C510.742,160.548,504.8,157.076,501.812,158.08Z"/>
      </g>
    </g>
  </g>
</svg>
