<svg xmlns="http://www.w3.org/2000/svg" xmlns:xlink="http://www.w3.org/1999/xlink" width="150.89" height="173.551" viewBox="0 0 150.89 173.551">
  <defs>
    <clipPath id="clip-Монтажная_область_1">
      <rect width="150.89" height="173.551"/>
    </clipPath>
  </defs>
  <g id="Монтажная_область_1" data-name="Монтажная область 1" clip-path="url(#clip-Монтажная_область_1)">
    <g id="Background">
      <rect id="Rectangle_1" data-name="Rectangle 1" width="841.89" height="1190.551" fill="none"/>
      <text id="Comics_elements" data-name="Comics elements" transform="translate(242.841 60)" fill="none" font-size="36" font-family="Helvetica" letter-spacing="0.05em"><tspan x="0" y="0">Comics elements</tspan></text>
    </g>
    <g id="Elements">
      <g id="Cloud" transform="translate(-274 -166)">
        <g id="Group_6" data-name="Group 6">
          <path id="Path_75" data-name="Path 75" d="M397.946,287.554c-.494-.332-.815-.549-.889-.6a29.341,29.341,0,0,0-.071-4.212,2.3,2.3,0,0,1,.855-2.583c.27-.219.538-.443.785-.687,1.667-1.638,8.528-9.351,3.176-16.366-.493-.563-1.009-1.106-1.563-1.712.29-.545.53-1.067.831-1.552a17.159,17.159,0,0,0,2.188-8.512c.2-4.254-1.8-7.687-4.49-10.65a27.976,27.976,0,0,0-11.737-7.594c-1.238-.43-2.534-.688-3.725-1,.105-.664.335-11.262-7.077-15.744-1.427-.757-10.225-6.37-18.837-1.013-.137-.717-.274-1.363-.4-1.978a1.22,1.22,0,0,1-1.134.356,70.257,70.257,0,0,0-7.4-1.53,1.629,1.629,0,0,0-1.473.081c-2.054-.934-6.6-2.074-8.588-4.224q-.039.4-.08.8a10.69,10.69,0,0,0-7.907-1.387c-4.323.729-8.4,2.254-11.4,5.741-.445.517-7.767-.661-15.08,5.123a29.314,29.314,0,0,0-9.238,11.371c-1.357,2.958-3.549,10.8-2.855,16.255-.077.073-.333.3-.575.551-1.581,1.606-3.294,3.092-4.347,5.154a35.666,35.666,0,0,0-3.32,9.316,23.543,23.543,0,0,0-.269,8.277,31.873,31.873,0,0,0,8.825,17.646c4.588,6.215,14.191,7.073,14.885,7.183.613,2.341,2.618,9.208,4.452,9.543l-.771.825a1.133,1.133,0,0,1,.153.287c.2.583.385,1.183.561,1.786a1.379,1.379,0,0,1,1.036.549,19.258,19.258,0,0,1,3.188,5.815c.175-.213.354-.432.521-.632,5.828,3.135,11.353,4.161,19.06.681.177.28.364.565.54.857,1.2,1.992,2.372,4,3.59,5.976,1.305,2.12,6.061,6.848,14.514,8.278,18.031,1.762,23.728-15.795,24.068-15.925,6.024-1.928,12.081-8.524,13.08-11.057.133.083.265.163.4.245a7.492,7.492,0,0,1,1.252-1.735c2.059-2.231,3.27-2.27,4.278-5.753a44.221,44.221,0,0,0,.939-6.115C397.91,287.634,397.935,287.6,397.946,287.554Z" fill="#ffffff"/>
        </g>
        <g id="Group_7" data-name="Group 7">
          <path id="Path_76" data-name="Path 76" d="M417.543,314.667c-1.663-1.906-3.288-3.853-4.96-5.75-2.373-2.693-8.311-10-8.774-10.667,1.578-.1,3.887-.42,4.358-.454.632-.047,1.538-.219,1.666-.963.123-.71-.592-1.06-1.083-1.416-1.895-1.375-9.007-5.984-10.75-7.167-3.635-1.529-7.286-4.339-10.5-5.917-.368,1.007-.593,2.628-1.448,3.308-.025.02-.056.03-.082.05a10.853,10.853,0,0,1-1.019,2.491c2.443,1.172,4.665,3.787,6.966,5.235.946.6.385,1.255-.485,1.505-8.1,2.328-.45,5.289-.432,5.245,3.742,2.321,8.01,4.8,11.583,7.166,3.68,2.433,7.226,5.292,10.834,7.834,2.166,1.526,8.4,6.023,9.116,5.5C423.28,319.966,419.09,316.44,417.543,314.667Z" fill="#c0392b"/>
          <path id="Path_77" data-name="Path 77" d="M320.417,299.583c-.833-.726-1.318-1.593-1.834-1.787-1.963,2.3-12.2,12.445-11.916,10.7.086-.542-.334-4.583-1.985-4.294-.421.074-2.274,2.52-2.515,2.211-6.023,6.772-23.072,25.05-26.25,29.75-.23.455,2.26-1.766,2.458-1.834.455-.17,16.809-12.9,20.708-15.75.449-.328,2.522-2.035,2.667-.416.186,2.066-1.418,11.523.25,9.981,1.558-.658,8.934-10.907,13.417-16.315,3.666-5.067,5.358-7.008,8.083-10.25A19.558,19.558,0,0,1,320.417,299.583Z" fill="#c0392b"/>
          <path id="Path_78" data-name="Path 78" d="M348.895,220.826a48,48,0,0,1-.1-8.93c.022-.29-.426-5,.693-3.646,1.319,1.6,4.891,3.3,6.14,4.949.4-.166.133-.923.617-1-.154-.762-.239-1.577-.333-2.287-.147-1.1-.334-3.138-.417-4.25-.27-3.637-.429-4.862-.667-8.5-.28-4.289-.479-7.628-.75-11.917-.163-2.582-.254-5.508-.5-8.083-.267-2.8-.2-3.289-.555-6.084-.03-.244-.069-4.646-.445-2.666-.742,5.534-1.177,9.473-2,14.666-.83,5.239-1.9,11.681-2.916,17.25a32.359,32.359,0,0,1-1.755-2.916c-1.246-2.137-2.233-3.743-3.412-5.917-.393-.725-.311-1.214-1.333-.667-1.755,6.214-2.809,18.341-3.289,20.617-.885,4.191-.716,8.363-1.121,12.6q-.069.718-.148,1.426a75.538,75.538,0,0,1,12.135-.821C348.788,223.772,348.92,221.053,348.895,220.826Z" fill="#c0392b"/>
        </g>
        <path id="Path_79" data-name="Path 79" d="M319.083,247.161c-2,.7-4.014,1.322-5.965,2.107a34.019,34.019,0,0,0-7.222,4.3c-4.171,3.033-5.081,7.559-6.294,12.021-.06.221.04.5-.057.691-.121.233-.374.561-.565.557-.3-.005-.805-.2-.858-.407a5.479,5.479,0,0,1-.279-2.234c1.281-7.017,4.5-12.642,11.252-15.837a23.473,23.473,0,0,1,7.723-2.265C318.268,245.947,318.538,246.055,319.083,247.161Z"/>
        <path id="Path_80" data-name="Path 80" d="M363.391,275.029c-1.7.184-.326-1.15.127-1.744a16.65,16.65,0,0,0,3.6-11.015,9.984,9.984,0,0,0-6.206-9.121c-1.351-.631-1.35-.633-1.639-2.015.949-.925,1.975-.451,2.937-.066a11.289,11.289,0,0,1,4.863,3.992c3.145,4.286,3.222,8.942,1.465,13.771C367.151,271.2,364.919,275.27,363.391,275.029Z"/>
        <path id="Path_81" data-name="Path 81" d="M337.947,207.914c.606-5.967,1.064-11.676,2.826-17.917,1.023-.547,1.374-.1,1.767.629,1.179,2.174,2.432,4.308,3.678,6.445a15.049,15.049,0,0,0,1.1,1.39c1.016-5.569,2.064-10.774,2.894-16.013.823-5.194,1.426-10.422,2.169-15.957.375-1.979.792.662.823.906.353,2.794.694,5.592.961,8.4.246,2.575.423,5.157.586,7.739.271,4.289.483,8.582.763,12.871.239,3.638.541,7.273.811,10.909.082,1.113.094,2.234.241,3.337.16,1.2.44,2.382.721,3.85,8.733-5.432,17.655.259,19.1,1.027,7.517,4.546,7.284,15.293,7.177,15.966,1.207.32,2.523.582,3.778,1.017a28.389,28.389,0,0,1,11.9,7.7c2.726,3.005,4.757,6.487,4.553,10.8a17.39,17.39,0,0,1-2.219,8.633c-.3.491-.548,1.021-.842,1.574.562.614,1.085,1.164,1.585,1.735,5.427,7.115-1.53,14.936-3.221,16.6-.251.247-.522.474-.8.7a2.337,2.337,0,0,0-.868,2.62,29.424,29.424,0,0,1,.073,4.272c.486.357,11.354,7.556,13.4,9.036.491.356.9.735.776,1.446-.128.743-.635.934-1.268.98-.47.034-3.936.225-5.513.325.462.664,5.858,6.647,8.231,9.339,1.673,1.9,3.174,3.945,4.836,5.851,1.547,1.774,5.955,6.74,5.208,7.44-.719.523-7.744-4.155-9.91-5.681-3.607-2.542-7.17-5.151-10.85-7.584-3.573-2.364-7.27-4.541-11.012-6.862-1.013,2.568-7.156,9.258-13.265,11.212-.344.132-6.121,17.938-24.407,16.15-8.572-1.45-13.4-6.245-14.719-8.394-1.235-2.007-2.427-4.04-3.64-6.06-.178-.3-.369-.586-.548-.87-7.816,3.53-13.418,2.489-19.328-.69-4.46,5.333-11.836,15.382-13.427,16.054-1.668,1.541-1.276-6.989-1.462-9.055-.145-1.619-1.2-.387-1.646-.059-3.9,2.853-24.141,17.924-24.6,18.094-.2.068-.48.152-.249-.3,3.644-5.388,30.087-34.431,31.334-36.009.618-.089,1.114.321,1.272,1.239.254,1.48.535,2.955.85,4.679l3.171-3.391c-1.861-.34-3.893-7.3-4.516-9.678-.7-.111-10.442-.982-15.094-7.284a32.32,32.32,0,0,1-8.95-17.9,23.873,23.873,0,0,1,.273-8.394,36.142,36.142,0,0,1,3.367-9.447c1.067-2.091,2.8-3.6,4.408-5.227.245-.249.505-.484.583-.558-.7-5.535,1.52-13.485,2.895-16.484a29.726,29.726,0,0,1,9.369-11.532c7.416-5.865,14.841-4.671,15.292-5.2,3.04-3.536,7.178-5.082,11.562-5.821A10.842,10.842,0,0,1,337.947,207.914Zm-20.612,102.76a15.818,15.818,0,0,0,9.091,2.14c2.924-.282,5.675-.97,7.826-3.186a1.616,1.616,0,0,1,2.476.694c4.45,14.571,17.124,15.513,18.451,15.555,12.946,1.682,18.23-11.409,19.071-12.574-1.209.083-2.02.168-2.833.188-1.175.03-2.357.077-3.526-.007a1.53,1.53,0,0,1-1.357-1.586c.115-.757.749-.831,1.343-.878,1.292-.1,2.593-.12,3.879-.271,10.73.128,17.2-10.475,17.461-10.94l-3.306-2.146c-1.631-1.612,4.074-2.693,5.232-3.209l-5.652-4.735a17.073,17.073,0,0,1-1.112,1.383c-.911.912-1.83,1.818-2.8,2.665a1.215,1.215,0,0,1-1.76-.066,1.044,1.044,0,0,1,.123-1.686c.307-.274.564-.605.883-.862a10.854,10.854,0,0,0,3.432-11.919c-.529-1.479-1.216-2.9-1.82-4.323-.527-1.873,4.2,2.146,5.231,5.927.337,1.238,6.5,4.386,7.093,4.683a10.787,10.787,0,0,0-1.923-6.7c-1.679-2.477-3.574-4.808-5.341-7.227-1.707-2.4,1.195-2.161,2.283-.95,2.19,2.44,4.323,4.931,6.509,7.436,3.107-1.189,8.555-9.786,2.8-14.333-.271.154-.514.3-.762.431a1.436,1.436,0,0,1-1.874-.459,1.3,1.3,0,0,1-.066-1.777c.317-.425.594-.88.92-1.3a14.319,14.319,0,0,0,3.167-6.428c.384-2.281.684-4.619-.234-6.793a17.917,17.917,0,0,0-4.473-6.5,25.158,25.158,0,0,0-9.516-5.588c-2.537-.763-5.159-1.727-7.86-.456-.076.035,1.156-.412-.324-.1-.645-1.544-.5-2.022.909-2.6.692-.282,1.43-.451,2.054-.643.539-2.464.351-7.433-.627-9.345-2.124-4.154-11.205-13.241-23.2-5.479-1.007.59-2.467,2.742-3.427,3.415-.625.439-1.234.187-1.17-.56a3.847,3.847,0,0,1,.728-1.873,23.825,23.825,0,0,1,2.079-2.206,7.084,7.084,0,0,0-4.295-1.192,1.256,1.256,0,0,0-1.467,1.384c.045,2.294.2,5.185.2,7.479,0,0,4.25.52,8.653,5.048a2.106,2.106,0,0,1,.824,2.3c-.257.974-2.693-.152-3.188-.572-3.148-2.669-4.8-5.24-14.076-4.884-3.48.4-7.594,2.371-10.6,4.331-.756.493-1.557.917-2.337,1.373-3.7.914,2.258-4.6,7.127-6.453.411-4.724.755-8.684,1.143-13.142-1.729-1.855-3.823-2.067-6.089-1.98-7.222.419-9.911,3.411-10.083,4.121,1.652.718,5.832,3.093,6.014,3.7,1.2,1.32.853,2.356-.455,1.918-1.007-.435-2.2-1.67-2.931-2.018-1.855-.89-6.973-5.06-18.821,1.7-7.548,6.1-9.17,10.918-10.732,14.365-3.676,9.02-.332,17.727,1.931,20.228a1.268,1.268,0,0,1,.03,1.229c-.389.472-.964.291-1.4-.115-.172-.16-.3-.365-.474-.525a11.265,11.265,0,0,1-2.93-5.571,10.106,10.106,0,0,0-2.728,3.389c-.683,1.5-1.409,2.985-1.993,4.523a25.81,25.81,0,0,0-1.766,11.6,25.533,25.533,0,0,0,2.525,8.954,28.548,28.548,0,0,0,11.414,12.664,17.379,17.379,0,0,0,7.465,2.071c.091-.572.71-6.316,3.378-8.528.588.156.633.723.42,1.317a16.281,16.281,0,0,0-.8,2.7c-2.256,10.5,1.788,13.363,2.584,16.051l5.3-5.219c-.128-.207-.273-.451-.426-.689a17.007,17.007,0,0,1-2.5-6.38c-.106-.625-.194-1.272.616-1.658a6.158,6.158,0,0,1,.4.638c.27.59.531,1.185.775,1.786,1.375,3.386,5.512,7.672,8.9,8.972a48.156,48.156,0,0,0,5.425,1.574c1.172.3,2.38.455,3.572.675,1.008.737-.579.755-.856.726-2.858-.3-5.711-.651-8.6-.992A80.331,80.331,0,0,0,317.335,310.674Zm35.327-136.513c-1.025,9.28-2.6,18.449-4.3,27.644a2.91,2.91,0,0,1-1.834-1.8c-1.3-2.418-3.127-5.61-4.481-8-1.148-3.1-3.485,22.09-3.691,31.853a24.9,24.9,0,0,1,9.358-.821c-.034-2.736-.07-5.555-.1-8.373-.025-2.236-.07-4.473-.054-6.708.009-1.139.49-1.436,1.535-.9.707.366,3.967,3.507,5.379,4.18-.184-6.284-.477-12.442-.516-18.6A155.939,155.939,0,0,0,352.662,174.161ZM421.678,319.5c-.309-.35-21.266-20.812-20.054-22.468.711-1.314,7.013.8,6.6-.568-3.173-3.1-18.1-12.041-20.577-12.535l-1.048,3.718,8.158,6.561c1.462,2.272-7.2,2.45-5.853,3.249C401.641,304.155,423.507,322.956,421.678,319.5ZM318.561,299.2c-2.736,2.767-5.5,5.573-8.275,8.365a23.273,23.273,0,0,1-2.559,2.412c-1.042.768-1.891.389-2.237-.863a9.015,9.015,0,0,1-.183-1.391c-.07-.607-.133-1.215-.231-2.113-2.663,2.914-5.091,5.6-7.548,8.251-2.476,2.674-4.9,5.4-7.5,7.96-3.286,3.246-11.159,10.782-11.658,12.107.171-.118,10.916-8.989,13.846-11.265s5.89-4.478,8.874-6.664c2.456-1,1.588,2.754,1.536,4.213s-.839,7.373-.181,6.658c2.032-1.74,13.222-17.738,19.7-25.4A6.49,6.49,0,0,1,318.561,299.2Zm34.467-87.371-3.535-2.66.218,3.03Z"/>
      </g>
    </g>
  </g>
</svg>
