<svg xmlns="http://www.w3.org/2000/svg" xmlns:xlink="http://www.w3.org/1999/xlink" width="115.89" height="108.551" viewBox="0 0 115.89 108.551">
  <defs>
    <clipPath id="clip-Монтажная_область_1">
      <rect width="115.89" height="108.551"/>
    </clipPath>
  </defs>
  <g id="Монтажная_область_1" data-name="Монтажная область 1" clip-path="url(#clip-Монтажная_область_1)">
    <g id="Background">
      <rect id="Rectangle_1" data-name="Rectangle 1" width="841.89" height="1190.551" fill="none"/>
      <text id="Comics_elements" data-name="Comics elements" transform="translate(242.841 60)" fill="none" font-size="36" font-family="Helvetica" letter-spacing="0.05em"><tspan x="0" y="0">Comics elements</tspan></text>
    </g>
    <g id="Elements">
      <g id="Cloud" transform="translate(-700 -77)">
        <path id="Path_36" data-name="Path 36" d="M810.377,115.506s5.361,13.086,1.773,20.13c-8.975,17.624-22.032,13.8-22.032,13.8.139,6.982-9.734,12.011-17.14,10.939-7.126-1.032-12.505-7.1-13.978-13.747-.087-.392-13.483,6.329-26.7,14.949C716.463,171.9,700.354,184.437,700.56,183.7c.528-1.883,4.431-8.26,4.431-8.26,32.977-43.114,39.162-56.41,39.162-56.41-7.3-3.072-11.192-12.38-7.321-20.828,6.33-13.812,21.156-8.6,21.156-8.6,1.762-13.758,17.145-15.155,19.8-6.266a48.177,48.177,0,0,1,11.137-.989C800.089,82.857,816.765,91.742,810.377,115.506Z" fill="#fff"/>
        <path id="Path_37" data-name="Path 37" d="M739.153,116.7c-.517.136-.8-.351-1.007-.622a18.5,18.5,0,0,1-3.559-10.918c-.174-3.23,2.105-18.938,19.945-17.335,1.007.2,2.015.391,3.03.588.582-6.1,3.579-10.194,9.569-11.477,5.325-1.14,9.938,1.266,11.718,5.981a23.559,23.559,0,0,1,9.375-1.551c29.474,1.746,24.795,29.193,22.963,34.122,0,0,3.012,5.361,3.506,10.306.974,7.761-3.72,15.449-5.823,17.939a21.973,21.973,0,0,1-9.332,5.788,61.834,61.834,0,0,1-8.155,1.126c-1.112,2.4-4.709,8.75-11,10.794-4.319,1.5-8.194.743-12.18-1.146a18.4,18.4,0,0,1-8.385-8.353c-1.883-3.522-3.669-9.872-3.727-12.691.016-1.615.9-1.47,1.231-.486a27.4,27.4,0,0,1,.638,3.049c6.05,20.548,20.4,17.57,24.2,15.309,2.665-1.586,5.359-3.347,7.042-6.591a14.877,14.877,0,0,1-6.672-2.046c-.6-.712-.257-.968.917-.767,4.611,1.513,11.982,1.112,16.022-.451,5.749-2.224,9.051-6.348,11.378-12.967a19.408,19.408,0,0,0-.524-14.316,23.7,23.7,0,0,0-4.658-7.753c-.856-.918-3.175-2.869-2.467-3.433,1-.358,4.456,2.759,6.017,4.8,2.821-7.509,1.907-15.954-3.071-21.774-4.279-4.88-20.33-14.99-32.32-3.731-.08.071-.434.4-.7.106-.279-.557,1.089-2.829,3.308-3.977a6.091,6.091,0,0,0-5.583-5.753c-8.625-.931-11.637,7.722-11.031,10.45a26.339,26.339,0,0,1,6.292,6.505c.271.481.539.965-.048,1.357-.531.356-.908.036-1.334-.356-1.607-1.471-3-3.432-4.943-4.479-4.644-2.5-8.906-3.318-14.464-.56-3.228,1.4-6.264,5.464-6.456,5.722-5.153,7.814-1.109,15.6.235,17.4C739.417,115.153,740.189,116.195,739.153,116.7Z"/>
        <path id="Path_38" data-name="Path 38" d="M700.8,183.037c1.208-1.111,43.621-37.205,45.425-38.812,1.318.37,9.423,3.323,10.372,3.718-.574.451-38.471,24.771-42.417,27.36-2.759,1.811-11.887,7.868-13.777,8.957A7,7,0,0,1,700.8,183.037Z"/>
        <path id="Path_39" data-name="Path 39" d="M745.735,129.311c-5.33,5.753-39.844,45.042-40.744,46.131,2.63-4.342,40.066-58.327,40.67-59.229C745.813,116.249,745.735,129.311,745.735,129.311Z"/>
        <path id="Path_40" data-name="Path 40" d="M788.261,126.6c1.826-1.892,10.4-9.523,8.852-19.936-1.239-6.017-6.6-9.18-7.974-10.357a1.37,1.37,0,0,1-.483-1c.052-.645,1.247.048,1.75.306,17.916,10.394,6.7,27.475-1.164,31.234C788.38,127.241,787.964,127.008,788.261,126.6Z"/>
        <path id="Path_41" data-name="Path 41" d="M737.837,141.764l1.934,2.627c-2.043,1.967-30.843,28.895-31.122,28.925l.315-1.181C709.316,171.677,737.486,142.045,737.837,141.764Z"/>
        <path id="Path_42" data-name="Path 42" d="M756.366,108.891c-.4-.113-.421-.421-.209-.752a10.866,10.866,0,0,1,6.188-4.748c7.276-1.773,11.074,4.388,11.956,7.345.159.535.044.932-.388.682-1.714-3.131-3.993-5.411-7.862-5.983C762.274,104.877,759.368,106.272,756.366,108.891Z"/>
      </g>
    </g>
  </g>
</svg>
