<svg xmlns="http://www.w3.org/2000/svg" xmlns:xlink="http://www.w3.org/1999/xlink" width="80.89" height="83.551" viewBox="0 0 80.89 83.551">
  <defs>
    <clipPath id="clip-Монтажная_область_1">
      <rect width="80.89" height="83.551"/>
    </clipPath>
  </defs>
  <g id="Монтажная_область_1" data-name="Монтажная область 1" clip-path="url(#clip-Монтажная_область_1)">
    <g id="Background">
      <rect id="Rectangle_1" data-name="Rectangle 1" width="841.89" height="1190.551" fill="none"/>
    </g>
    <g id="Elements">
      <g id="Sign" transform="translate(-30 -392)">
        <path id="Path_114" data-name="Path 114" d="M92.394,465.477a6.293,6.293,0,0,1,.537,4.858,7.367,7.367,0,0,1-5.332,4.02,5.321,5.321,0,0,1-5.273-3.242,6.823,6.823,0,0,1,.2-5.777c.21-.419,1.053-2.013,4.114-3.241C89.592,461.286,91.685,464.129,92.394,465.477Z" fill="#fff"/>
        <path id="Path_115" data-name="Path 115" d="M78.054,460.93c-1.646-4.065-10.814-20.976-25.849-33.725-1.068-.577-1.482-1.524-4.237-2.982-.084-.829-.143-2.075.405-2.319,2.747-1.231,5.479-2.5,8.241-3.695,3.184-1.38,6.39-2.709,9.6-4.041,1.5-.622,1.481-.671,3-1.228a2.74,2.74,0,0,1,2.453.132c9.105,12.075,14.568,40.442,14.224,43.109-.574,1.531-2.825,3.434-5.421,6C79.358,463.157,78.515,462.068,78.054,460.93Z" fill="#fff"/>
        <path id="Path_116" data-name="Path 116" d="M78.255,461.876c-1.69-4.175-11.108-21.544-26.55-34.638-1.1-.593-1.522-1.565-4.351-3.063-.086-.852-.147-2.131.416-2.382,2.822-1.264,5.627-2.566,8.464-3.8,3.27-1.417,6.564-2.782,9.855-4.15,1.538-.64,1.521-.69,3.085-1.262a2.815,2.815,0,0,1,2.52.136C81.045,425.124,86.656,454.259,86.3,457c-.589,1.573-2.9,3.527-5.568,6.163C79.594,464.163,78.728,463.044,78.255,461.876Zm2.357-.536c1.483-1.62,2.872-3.115,4.231-4.635a1.829,1.829,0,0,0,.273-1.754c-.51-2.227-5.025-29.725-13.36-40.561-.176-1.181-21.752,7.221-20.517,8.445a113.9,113.9,0,0,1,16.515,17.848A124.628,124.628,0,0,1,80.612,461.34Z"/>
        <path id="Path_117" data-name="Path 117" d="M92.584,465.372a6.529,6.529,0,0,1,.557,5.04,7.645,7.645,0,0,1-5.532,4.171,5.52,5.52,0,0,1-5.471-3.364,7.078,7.078,0,0,1,.207-5.993c.218-.435,1.093-2.089,4.269-3.363C89.676,461.023,91.849,463.973,92.584,465.372Zm-.773,3.18a5.726,5.726,0,0,0-2.518-5.368c-1.138-.822-3.7.077-4.641,1.161-1.473,1.7-1.065,4.855.42,6.648a3.525,3.525,0,0,0,3.4.657C90.248,471.239,91.773,469.69,91.811,468.552Z"/>
        <path id="Path_118" data-name="Path 118" d="M36.671,458.389c-.4.542-3.281-2.644-2.711-2.682,1.516-.9,7.858-4.414,9.468-5.331,1.569-.9,3.152-1.764,4.712-2.672,1.6-.932,7.221-4.21,8.829-5.127.369-.188.665.605.363.814-2.8,1.928-5.6,3.844-8.366,5.809C46.981,450.61,37.447,457.746,36.671,458.389Z" fill="#c0392b"/>
        <path id="Path_119" data-name="Path 119" d="M64.525,409.574c-.036.242-.585.385-.708-.266.189-.4-.381-16.425-.438-17.022a5.468,5.468,0,0,1,3.581.078C67.415,392.472,64.9,408.341,64.525,409.574Z" fill="#c0392b"/>
        <path id="Path_120" data-name="Path 120" d="M61.924,465.077l-1.914-.995a39.459,39.459,0,0,1,2.615-4.572c1.826-2.82,3.434-5.705,5.271-8.518.167-.256,1.148-.01.919.4-.924,1.649-1.89,3.28-2.73,4.972C64.661,459.231,63.319,462.144,61.924,465.077Z" fill="#c0392b"/>
        <path id="Path_121" data-name="Path 121" d="M79.419,421.062c-.354.273-.9-.516-.542-.924,1.749-1.978,7.764-8.881,8.968-10.4,1-1.256,3.263-4.48,3.407-4.816.361-.85.984-1.026,1.619-.363a13.106,13.106,0,0,1,1.916,2.585C95.986,408.419,80.367,420.2,79.419,421.062Z" fill="#c0392b"/>
        <path id="Path_122" data-name="Path 122" d="M30.992,403.948c-.938-.358,2.686-4.8,3.435-4.542.4.393,5.32,5.542,7.347,7.683,1.46,1.541,5.73,5.734,6.448,6.223.379.258.021.774-.4.882C47.684,414.23,32.5,405.2,30.992,403.948Z" fill="#c0392b"/>
        <path id="Path_123" data-name="Path 123" d="M84.8,436.921c-1.374-.385,1.619-1.3,2.543-1.7,2.307-1,12.809-5.12,15.726-6.248,1.189-.46,2.369-.942,3.672-1.462.75-.018,1.176,2.541.693,2.8-2.64.774-5.136,1.5-7.628,2.239C97.267,433.3,87.154,436.555,84.8,436.921Z" fill="#c0392b"/>
        <path id="Path_124" data-name="Path 124" d="M46.7,429.529a17.956,17.956,0,0,1-2.225.035,31.922,31.922,0,0,0-13.314,3.861c-.9.44-1.166-2.055-1.2-3.864-.05-.512.33-.589.624-.608a58.979,58.979,0,0,1,15.951.036C47.242,429.083,46.7,429.436,46.7,429.529Z" fill="#c0392b"/>
      </g>
    </g>
  </g>
</svg>
