<svg xmlns="http://www.w3.org/2000/svg" xmlns:xlink="http://www.w3.org/1999/xlink" width="104.89" height="91.551" viewBox="0 0 104.89 91.551">
  <defs>
    <clipPath id="clip-Монтажная_область_1">
      <rect width="104.89" height="91.551"/>
    </clipPath>
  </defs>
  <g id="Монтажная_область_1" data-name="Монтажная область 1" clip-path="url(#clip-Монтажная_область_1)">
    <g id="Background">
      <rect id="Rectangle_1" data-name="Rectangle 1" width="841.89" height="1190.551" fill="none"/>
    </g>
    <g id="Elements">
      <g id="Cloud" transform="translate(-28 -29)">
        <path id="Path_15" data-name="Path 15" d="M109.021,57.422c.746,0,4.834-.693,8.286,1.919a19.333,19.333,0,0,1,4.36,4.087,11.759,11.759,0,0,1,2.246,6.457c.209,3.407-1.062,6.445-1.956,9.589-.04.141-.48,1.4-.48,1.4a59.1,59.1,0,0,1,4.049,4.778c1.967,2.843,5.315,16.224-11.536,20.35-1.332.24-5.222.674-5.222.674-1.571,3.63-4.586,7.433-8.084,9.19-3.573,1.794-8.063,1.33-11.634-.236a21.509,21.509,0,0,1-2.264-1.491s-8.22,5.178-17.859,2.387a20.841,20.841,0,0,1-7.676-5c-1.15-1.122-2.224-2.323-3.385-3.544a16.515,16.515,0,0,1-6.9,1.878,14.866,14.866,0,0,1-10.734-3.737,12.207,12.207,0,0,1-4.4-8.191,16.87,16.87,0,0,1,.636-6.43c.053-.19.092-.384.134-.565-5.708-3.442-8.586-8.314-6.464-14.853,1.753-5.4,6-8.018,11.821-7.9a4.05,4.05,0,0,0,.142-.589c1.989-24.127,19.954-16.257,20.617-15.941.266-9.639,7.643-15.624,12.034-17.572,7.307-3.24,15.8-2.392,20.4-.251A22.741,22.741,0,0,1,106.127,44.4C107.951,48.067,109.317,53.7,109.021,57.422Z" fill="#fff"/>
        <path id="Path_16" data-name="Path 16" d="M109.57,57.03c.761,0,4.925-.706,8.443,1.955a19.731,19.731,0,0,1,4.442,4.164,11.983,11.983,0,0,1,2.288,6.58c.214,3.471-1.082,6.566-1.992,9.77-.041.143-.489,1.424-.489,1.424a60.372,60.372,0,0,1,4.125,4.868c2,2.9,5.416,16.531-11.754,20.735-1.357.244-5.32.687-5.32.687-1.6,3.7-4.673,7.573-8.238,9.363-3.64,1.828-8.215,1.355-11.853-.241a22.055,22.055,0,0,1-2.307-1.518s-8.375,5.275-18.2,2.432a21.222,21.222,0,0,1-7.821-5.1c-1.172-1.143-2.267-2.367-3.45-3.611a16.824,16.824,0,0,1-7.026,1.914,15.149,15.149,0,0,1-10.936-3.807A12.437,12.437,0,0,1,35,98.3a17.164,17.164,0,0,1,.649-6.551c.053-.194.093-.392.136-.575C29.97,87.666,27.037,82.7,29.2,76.039c1.785-5.5,6.114-8.17,12.044-8.045a3.97,3.97,0,0,0,.144-.6C43.415,42.811,61.72,50.83,62.4,51.152c.271-9.822,7.787-15.919,12.262-17.9,7.445-3.3,16.1-2.438,20.78-.255a23.158,23.158,0,0,1,11.184,10.773C108.48,47.5,109.872,53.234,109.57,57.03Zm-2-.873c-.132-1.9-1.77-19.869-16.3-22.743a21.234,21.234,0,0,0-11.131-.132c-2.242.534-4.563.94-6.448,2.391C60.031,44.757,65.337,53.966,65.6,54.4c.129.213-.25,1.37-1.868-.216a45.407,45.407,0,0,0-4.941-2.852c-4.263-1.875-14.913.644-15.695,13.883-.606,3.79,3.1,6.937,1.158,7.527-.375-.768-2.074-3.433-3.06-3.557-1.765-.222-6.985,1.313-8.052,2.583a13.313,13.313,0,0,0-3.054,10.75c.481,4.073,4.771,6.875,6.169,7.18.911-.974.915-2.392,2.028-3.193.445.716-.022,1.172-.242,1.632a16.636,16.636,0,0,0-1.681,6.222,12.874,12.874,0,0,0,6.4,12.377,13.723,13.723,0,0,0,10.712,1.526,7.047,7.047,0,0,0,3.223-1.3L55.4,104.735c-.324-2.413,2.881,2.289,3.5,3.049,10.708,14.715,26.464,5.826,28.891,4.7.672-.31,1.3-.71,2.13-1.166,1.436,1.366-1.431,1.544-1.645,2.5a6.85,6.85,0,0,0,4.667,1.647,12.348,12.348,0,0,0,13.813-8.763c-1.266-.742-3.015-.189-4.355-1.564-.215-.689.618-.752,1.173-.689a19.465,19.465,0,0,0,18.948-3.748c11.5-11.614-5.713-21.889-6.592-23.189-.231-2.032,3.185,1.469,4.691,1.938,1.328-1.478,3.592-9.338.566-13.98-1.207-1.994-3.814-6.931-12.064-6.87C105.61,59.563,107.634,57.139,107.566,56.157Z"/>
        <path id="Path_17" data-name="Path 17" d="M31.384,95.028c0,.715.011,1.094,0,1.473-3.1,17.269,14.374,18.743,15.755,18.866,2.34.208,1.077.948.006.779-1.762-.278-12.474-.71-15.67-9.084A24.687,24.687,0,0,1,30.454,96.1C30.478,95.9,30.921,93.593,31.384,95.028Z"/>
        <path id="Path_18" data-name="Path 18" d="M60.438,47.5c-.641,1-1.2-4.409,1.994-10.181a12.732,12.732,0,0,1,4.593-4.905A17.058,17.058,0,0,1,74.5,29.491c.049.122.525.455-.077.733C74.066,30.433,61.509,31.058,60.438,47.5Z"/>
        <path id="Path_19" data-name="Path 19" d="M70.4,29c.918.491-.716.884-.887.946-9.9,1.527-10.7,12.491-10.865,13.659-.053.383.268,1.566-.124,1.3-1.413,0-.171-6.924,1.212-9.009C61.879,31.7,66.581,28.9,70.4,29Z"/>
        <path id="Path_20" data-name="Path 20" d="M119.168,57.351c-.415-.935,1.55-.267,2.217.038a11.021,11.021,0,0,1,6.3,7.073,14.223,14.223,0,0,1-.056,7.3c-.777.986-.518-.851-.486-1.315a13.067,13.067,0,0,0-.419-4.879,12.923,12.923,0,0,0-4.73-6.82A19.9,19.9,0,0,0,119.168,57.351Z"/>
        <path id="Path_21" data-name="Path 21" d="M128.86,76.914c-.784.789-1.222.114,1.048-4.625,1.525-4.119-.234-7.827.54-6.994C131.924,68.08,131.065,74.55,128.86,76.914Z"/>
      </g>
    </g>
  </g>
</svg>
