<svg xmlns="http://www.w3.org/2000/svg" xmlns:xlink="http://www.w3.org/1999/xlink" width="250.89" height="166.551" viewBox="0 0 250.89 166.551">
  <defs>
    <clipPath id="clip-Монтажная_область_1">
      <rect width="250.89" height="166.551"/>
    </clipPath>
  </defs>
  <g id="Монтажная_область_1" data-name="Монтажная область 1" clip-path="url(#clip-Монтажная_область_1)">
    <g id="Background">
      <rect id="Rectangle_1" data-name="Rectangle 1" width="841.89" height="1190.551" fill="none"/>
      <text id="Comics_elements" data-name="Comics elements" transform="translate(242.841 60)" fill="none" font-size="36" font-family="Helvetica" letter-spacing="0.05em"><tspan x="0" y="0">Comics elements</tspan></text>
    </g>
    <g id="Elements">
      <g id="Speech_balloon" data-name="Speech balloon" transform="translate(-379 -406)">
        <path id="Path_127" data-name="Path 127" d="M585.717,487.542c-.081.08-6.854,2.059-10.185,2.923-3.1.8-6.246,1.411-9.31,2.315a69.215,69.215,0,0,0-15.529,6.407c-3.956,2.315-5.336,5.985-5.473,10.339A15.272,15.272,0,0,0,547.3,517.7a38.31,38.31,0,0,0,2.777,3.87c-.158.05-4.127-2.165-4.251-2.253-3.706-2.634-7.378-2.794-12.758-1.394a11.185,11.185,0,0,0-7.446,6.28c-4.284,15.132-1.979,21.638-2.641,21.949-.271-.537-3.184-7.217-5.133-11.325-1.715-3.615-3.733-6.987-5.652-10.5a23.3,23.3,0,0,0-3.547-4.648c-8.513-11.257-14.723,18.14-15.651,18.639-.17-.21-3.408-11.947-5.07-14.491a12.3,12.3,0,0,0-6.66-5.01c-3.689-1.144-7.236-1.24-10.532,1.322-6.451,5.754-8.355,12.777-8.979,12.658-.563-.108-.062-10.648-2.444-14.692-2.425-4.605-6.758-5.693-11.239-4.5-4.315,1.146-8.26,3.877-11.686,6.569-2.943,2.314-5.64,3.7-8.41,6.232a6.4,6.4,0,0,1-.622.479c.135-.741,8.474-21.977,4.912-27.6a7.911,7.911,0,0,0-5.42-3.668,31.661,31.661,0,0,0-8.082-.388c-1.5.106-14.281,1.8-19.06,3.141-3.857,1.084-7.718,2.151-11.573,3.238-2.118.6-4.226,1.231-6.345,1.828-.5.142,8.353-3.487,7.772-3.375,10.215-4.781,15.531-9.762,18.688-12.063a29.433,29.433,0,0,0,9-11.087,16.918,16.918,0,0,0,1.352-8.8,31.112,31.112,0,0,0-4.141-12.89c.213.15,4.207,3.139,6.258,4.738a24.981,24.981,0,0,0,5.607,2.9c3.441,1.419,6.39-1.041,7.7-3.368,1.257-2.241.861-5.268.979-7.716a59.2,59.2,0,0,0-.8-10.459c-.288-2.233-.578-4.47-1-6.679-.52-2.7-1.886-8.784-1.937-9.153.1-.061,8.107,13.372,15.471,17.745,5.612,3.333,10.191-4.626,10.55-5.395.311-.667,2.347,4.415,7.218,5.426,5.506,2.29,12.586-3.918,14.609-6.123,3.241-3.533,6.428-7.512,9.519-11.183.967-1.148,3.834-4.874,4.34-5.235.135.925.838,9.794.845,14.337a35.034,35.034,0,0,0,.744,8.054,17.084,17.084,0,0,0,3.25,7.163c1.761,2.119,4.3,4.6,7.075,5.092,9.95.967,18.337-9.206,18.85-9.827.233.8,1.973,6.93,4.885,8.859,9,6.083,24.13-.527,28.2-1.919,3.636-1.244,10.724-4.077,10.85-3.923-14.956,15-16.441,22.54-16.622,24.842a4.7,4.7,0,0,0,1.78,3.963C562.9,485.957,585.79,486.954,585.717,487.542Z" fill="#fff"/>
        <path id="Path_128" data-name="Path 128" d="M587.269,487.73c-.082.082-6.933,2.083-10.3,2.957-3.132.813-6.318,1.428-9.418,2.342a70.08,70.08,0,0,0-15.71,6.481c-4,2.342-5.4,6.055-5.537,10.46a15.46,15.46,0,0,0,2.106,8.273c.8,1.4,3.435,4.717,3.743,5.1-.068.089-4.718-2.582-6.255-3.115-1.623-.563-6.432-3.18-11.885-1.762a11.32,11.32,0,0,0-7.532,6.353c-4.334,15.309-2.025,25.659-2.7,25.973-.274-.543-4.222-10.133-6.194-14.289-1.736-3.657-3.523-7.3-5.464-10.847a24.661,24.661,0,0,0-3.541-4.909c-8.612-11.387-14.922,19.83-15.862,20.335-.172-.213-3.271-13.75-4.952-16.323-1.551-2.374-3.337-4.509-6.162-5.385-3.732-1.157-7.32-1.255-10.654,1.337-6.527,5.822-9.143,14.643-9.774,14.521-.569-.109.177-12.857-1.782-16.578-2.453-4.658-6.837-5.759-11.37-4.555-4.365,1.159-8.356,3.921-11.821,6.645-2.978,2.341-5.706,3.741-8.508,6.3-.2.184-.434.333-.945.72.136-.75,8.888-22.469,5.284-28.158a8,8,0,0,0-5.483-3.711,32.12,32.12,0,0,0-8.176-.393c-1.515.108-14.447,1.819-19.282,3.178-3.9,1.1-7.807,2.176-11.707,3.276-2.143.6-4.276,1.245-6.419,1.85-.51.143-1.042.206-1.629.319,15.366-5.577,25.2-14.222,28.393-16.549a27.89,27.89,0,0,0,9.1-10.605,17.1,17.1,0,0,0,1.367-8.9,35.677,35.677,0,0,0-4.749-14.064c.215.152,4.906,3.547,6.981,5.165a21.424,21.424,0,0,0,5.137,2.856c3.481,1.436,6.439-.917,7.76-3.271,1.272-2.267,1.341-4.739,1.46-7.216a59.912,59.912,0,0,0-.808-10.581c-.292-2.258-.584-4.522-1.015-6.756-.526-2.728-1.908-8.887-1.96-9.26.105-.061,8.2,13.527,15.652,17.952,5.677,3.372,10.309-4.68,10.672-5.458.315-.675,2.375,4.467,7.3,5.49,5.57,2.316,12.083-4.294,14.13-6.526,3.279-3.573,6.3-7.381,9.429-11.094.979-1.162,5.111-6.375,5.622-6.74.136.936.466,11.464.474,16.06a35.4,35.4,0,0,0,.752,8.147,17.279,17.279,0,0,0,3.288,7.247,11.477,11.477,0,0,0,6.821,4.237c10.065.977,18.234-9.41,18.753-10.039.236.812,2.649,8.022,5.594,9.974,8.344,4.986,24.707-1.694,28.822-3.1,3.679-1.259,13.005-5.48,13.132-5.325-15.13,15.172-19.084,25.319-19.267,27.647a4.748,4.748,0,0,0,1.8,4.01C558.924,482.034,587.343,487.136,587.269,487.73Zm-65.763,52.294c.243-2.216.337-4.393.75-6.507,1.081-14.942,9.524-16.652,11.379-17.226a13.74,13.74,0,0,1,10.765.929c.672.347,1.371.64,2.31,1.076-1.336-2.314-4.6-9.5-1.051-16.955,5.287-9.713,34.986-13.371,35.9-13.457-.971-.464-36.284-3.483-31.493-16.86a33.569,33.569,0,0,1,2.376-5.562c2.3-4.119,8.944-12.052,12.366-15.027-.908.172-20.453,9.607-30.567,7.744a16.112,16.112,0,0,1-3.937-1.051,14.267,14.267,0,0,1-6.851-8.332c-.106-.309-.218-.615-.364-1.023-.6.591-11.946,13.338-23.249,7.078-3.356-1.964-7.6-5.972-7.445-20.805-.139-1.764-.31-8.762-.3-11.125-.768,1.036-6.9,8.142-9.253,11.308a41.87,41.87,0,0,1-6.683,7.013c-1.811,1.527-9.783,7.127-17.332.489a9.966,9.966,0,0,1-1.1-1.3c-.612.881-1.083,1.65-1.641,2.35a7.824,7.824,0,0,1-10.28,1.571,33.269,33.269,0,0,1-6.867-6.172,61.126,61.126,0,0,1-4.215-5.754c-.211-.29-.457-.555-.887-1.071.075.735,6.882,23.625,1,30.7-4.973,7.755-14.505-1.229-16.66-2.421.355,1.5.7,2.914,1.028,4.337a21.042,21.042,0,0,1,.021,11.089,19.021,19.021,0,0,1-4.191,7.8c-1.638,1.722-3.319,3.418-5.113,4.973-2.218,1.921-4.511,3.769-6.885,5.491-2.141,1.553-4.435,2.893-6.662,4.326a25.836,25.836,0,0,0,2.63-.571c3.465-.751,6.92-1.561,10.409-2.181a74.922,74.922,0,0,1,9.176-1.207,63.6,63.6,0,0,1,9.1.277c4.417.407,7.275,3.067,8.6,7.128a14.442,14.442,0,0,1-.448,8.989,53.649,53.649,0,0,1-3.979,9.673,12.479,12.479,0,0,0-.587,1.39c1.453-.845,8.632-7.2,13.421-8.407,11.4-3.847,14.992,2.121,15.495,2.857a17.909,17.909,0,0,1,2.627,5.933c.287,1.192.361,2.435.525,3.612,1.2-1.176,2.418-2.414,3.679-3.612,2.583-2.456,6.373-5.028,9.931-5.231,14.341.353,15.662,16.07,16.275,17.6.66-1.938,2.754-10.715,5.9-14.961,2.11-3.575,7.3-3.265,9.293-1.635C513.912,521.419,521.187,539.376,521.506,540.024Z"/>
        <path id="Path_129" data-name="Path 129" d="M440.537,537.816a25.15,25.15,0,0,0,4.156-.1c-5.768,7.389-18.013,20.963-18.116,20.9.079-.252,9.475-16.4,9.85-17.175-.719.037-3.048.289-3.8.416.149-.36,19.107-23.007,19.936-23.285C449.016,525.26,444.421,531.293,440.537,537.816Z" fill="#c0392b"/>
        <path id="Path_130" data-name="Path 130" d="M585.318,466.159c.091-1.9.162-3.39.244-5.1-1.215.461-26.774,11.3-27.287,11.221,10.837-6.788,32.811-19.96,32.934-19.867-.508,1.708-1.016,3.417-1.622,5.457.823-.3,36.576-18.723,38.935-19.807C628.34,438.279,586.056,465.719,585.318,466.159Z" fill="#c0392b"/>
        <path id="Path_131" data-name="Path 131" d="M411.653,434.723,410,438.852c-4.946-9.546-10.935-18.321-16.047-27.6,1.28.678,14.738,18.152,15.514,19.2l1.665-3.874c.29.313,15.61,28.317,15.642,28.823C425.267,453.891,413.135,436.39,411.653,434.723Z" fill="#c0392b"/>
        <path id="Path_132" data-name="Path 132" d="M560.162,571.29c-1.86-2.978-8.518-15.127-9.184-16.4-.707.783-2.465,3.25-4.058,5.243-.2-.2-7.309-25.444-9.395-36.861.1-.034,10.737,26.495,10.845,26.5l2.681-5.689C551.8,544.733,560.289,571.214,560.162,571.29Z" fill="#c0392b"/>
        <path id="Path_133" data-name="Path 133" d="M530.153,406.325c.157.935-16.76,31.1-17.108,31.729a45.355,45.355,0,0,0-1.7-5.274c-3.327,5.1-5.977,11.75-9.366,16.994-.505-.717,9.465-25.621,9.8-26.3a35.529,35.529,0,0,1,1.515,6.036C515.731,426.084,527.088,410.947,530.153,406.325Z" fill="#c0392b"/>
      </g>
    </g>
  </g>
</svg>
