<svg xmlns="http://www.w3.org/2000/svg" xmlns:xlink="http://www.w3.org/1999/xlink" width="111.89" height="76.551" viewBox="0 0 111.89 76.551">
  <defs>
    <clipPath id="clip-Монтажная_область_1">
      <rect width="111.89" height="76.551"/>
    </clipPath>
  </defs>
  <g id="Монтажная_область_1" data-name="Монтажная область 1" clip-path="url(#clip-Монтажная_область_1)">
    <g id="Background">
      <rect id="Rectangle_1" data-name="Rectangle 1" width="841.89" height="1190.551" fill="none"/>
    </g>
    <g id="Elements">
      <g id="Clouds" transform="translate(-370 -125)">
        <path id="Path_43" data-name="Path 43" d="M384.21,181.752c-.454-.568-1.8-1.742-4.988-2.051a10.186,10.186,0,0,1-5.888-2.645c-2.32-2.1-5.692-9.943,4.975-14.809,6.245-.433,2.231-3.49,1.6-4.878a5.442,5.442,0,0,1,.168-4.967,10.851,10.851,0,0,1,2.735-3.5,19.155,19.155,0,0,1,9.709-4.358,2.259,2.259,0,0,1,.339-.015,9.356,9.356,0,0,1,1.329-.456c-.172,2.023.538,1.643,1.262-.072.28-.662.335-1.418.6-2.091a24.928,24.928,0,0,1,5.238-8.029,29.658,29.658,0,0,1,5.975-5,22.1,22.1,0,0,1,2.915-1.306c.21-.091.447-.119.655-.212a11.753,11.753,0,0,1,6.615-.884c1.514.22,3.032.422,4.53.726a10.492,10.492,0,0,1,4.585,2.511,16.179,16.179,0,0,1,4.615,5.649,26.173,26.173,0,0,1,2.256,6.845c.013.085-.42,2.078,1.505,1.861,5.28-.594,11.685,2.106,12.851,5.288a17.054,17.054,0,0,1,4.143,9.774c.058.571.148,1.141.16,1.713a16.232,16.232,0,0,1-3.787,10.6,20.177,20.177,0,0,1-11.358,7.361,34.384,34.384,0,0,1-6.08,1.179c-2.663.155-7.456,3.695-8.235,4.626-2.589,3.094-6.039,4.879-9.707,6.324a19.419,19.419,0,0,1-5.986,1.539c-3.1.18-6.23.425-9.265-.394a25.6,25.6,0,0,1-9.608-5.025A26.707,26.707,0,0,1,384.21,181.752Z" fill="#fff"/>
        <path id="Path_44" data-name="Path 44" d="M466.658,133.71c2.945-3.933,5.838-4.266,8.783-2.854a6.421,6.421,0,0,1,3.071,7.845,4.067,4.067,0,0,1,1.673,6.1,8.024,8.024,0,0,1-3.048,2.7c-.624,1.509-1.238,2.669-2.217,3.214a5.237,5.237,0,0,1-5.51-.436c-.272-.18-.536-.373-.79-.55a5.156,5.156,0,0,1-7.411-.2,7.532,7.532,0,0,1-1.742-6.6c-.01-.763-3.187-3.113.28-7.431C462.358,132.668,465.95,133.668,466.658,133.71Z" fill="#fff"/>
        <path id="Path_45" data-name="Path 45" d="M431.29,189.351a3.239,3.239,0,0,1,2.6-2.336,3.118,3.118,0,0,1,3.377,4.89c1.562,1.759,2.019,3.036,1.059,4.956a4.638,4.638,0,0,1-3.192,2.053,18.777,18.777,0,0,1-2.3-.073,4.466,4.466,0,0,1-3.1,2.009,3.348,3.348,0,0,1-2.216-.811c-1.682-1.406-1.766-2.76-.3-5.1-1.151-2-.973-4.192,1.146-5.171A7.525,7.525,0,0,1,431.29,189.351Z" fill="#fff"/>
        <path id="Path_46" data-name="Path 46" d="M380.319,160.9a7.536,7.536,0,0,1-2.541-6.033,8.23,8.23,0,0,1,1.534-4.323,15.126,15.126,0,0,1,7.358-5.617,29.451,29.451,0,0,1,4.47-1.232,16.233,16.233,0,0,1,2.488-.156,1.278,1.278,0,0,0,.176-.4,17.085,17.085,0,0,1,2.469-5.555,34.423,34.423,0,0,1,6.229-7.313,22.336,22.336,0,0,1,10.164-5.247c10.354-1.6,14.115,2.278,16.1,3.95a16.109,16.109,0,0,1,3.854,4.429,23.539,23.539,0,0,1,3.01,9.182c.015.149.04.3.066.444.006.034.036.062.134.218.517,0,1.114-.009,1.712,0,6.467.114,11.1,3.152,14.123,8.809A20.191,20.191,0,0,1,454,161.083a16.9,16.9,0,0,1-1.97,8.068,21.947,21.947,0,0,1-7.154,8.024,25.983,25.983,0,0,1-11.363,4.22c-2,.323-4.057.3-6.141.434a21.687,21.687,0,0,1-4.141,5.4,26.165,26.165,0,0,1-9.649,5.521,21.345,21.345,0,0,1-4.883,1.386,52.262,52.262,0,0,1-7.694.15,16.708,16.708,0,0,1-4.761-.9,29.794,29.794,0,0,1-9.53-5.378,11.583,11.583,0,0,1-3.569-5.548c-.076-.25-.176-.493-.263-.735-1.228-.088-2.439-.1-3.624-.277a12.937,12.937,0,0,1-7.943-4.21,8.386,8.386,0,0,1-.887-8.966,12.806,12.806,0,0,1,8.538-6.876c.364-.094.722-.212,1.08-.326A1.691,1.691,0,0,0,380.319,160.9Zm4.934,20.385a11.232,11.232,0,0,0,3.14,5.386,25.24,25.24,0,0,0,9.473,4.956c2.993.806,6.078.565,9.136.388a19.153,19.153,0,0,0,5.9-1.518c3.617-1.425,7.018-3.185,9.572-6.236.767-.917,1.481-1.879,2.285-2.9-2.944-.953-5.779-1.7-8.335-3.274-.626-1,1.232-.862,1.929-.67,1.526.421,3.055.845,4.543,1.38a19.071,19.071,0,0,0,7.7.907,33.876,33.876,0,0,0,5.995-1.163,19.886,19.886,0,0,0,11.2-7.258,16.007,16.007,0,0,0,3.734-10.452c-.013-.564-.1-1.126-.158-1.689a16.809,16.809,0,0,0-4.085-9.638c-1.943-2.222-4.24-3.9-7.283-4.194a44.521,44.521,0,0,0-4.635-.174,13.233,13.233,0,0,0-2.571.352,13.818,13.818,0,0,0-5.325,2.677,1.938,1.938,0,0,1-1.658.508c-.3-.073-.716-.27-.778-.494a1.075,1.075,0,0,1,.378-.853,16.244,16.244,0,0,1,6.988-3.82c.249-.056.491-.137.734-.206a6.017,6.017,0,0,0-.006-.845A25.774,25.774,0,0,0,430.9,135.7a15.029,15.029,0,0,0-8.538-8.173c-1.477-.3-7.839-2.741-15.043,1.779a29.262,29.262,0,0,0-5.892,4.929c-6.1,6.4-6.52,13.4-6.247,15.175a.91.91,0,0,1-.526,1.068,7.42,7.42,0,0,1-1.361-5.668c-.107-.049-.14-.076-.173-.076a2.336,2.336,0,0,0-.335.014,18.892,18.892,0,0,0-9.573,4.3,10.689,10.689,0,0,0-2.7,3.448,5.361,5.361,0,0,0-.165,4.9,6.485,6.485,0,0,0,2.906,3.058,2.234,2.234,0,0,1,1.3,1.363c-.3.608-2.575.665-3.111.818-.654.186-1.291.434-1.945.618a11.454,11.454,0,0,0-6.449,4.89,6.452,6.452,0,0,0,.821,8.665,10.039,10.039,0,0,0,5.8,2.608,13.44,13.44,0,0,0,8.774-2.063,15,15,0,0,1,1.869-1.052,1.36,1.36,0,0,1,1.687.541c.243.514-.015,1.036-.7,1.447a24.135,24.135,0,0,1-5.9,2.843C385.345,181.146,385.3,181.231,385.253,181.285Z"/>
        <path id="Path_47" data-name="Path 47" d="M466.6,133.565c3.007-4.015,5.96-4.355,8.965-2.913a6.555,6.555,0,0,1,3.136,8.008,4.15,4.15,0,0,1,1.707,6.231,8.186,8.186,0,0,1-3.111,2.751c-.637,1.541-1.264,2.725-2.263,3.281a5.346,5.346,0,0,1-5.624-.445c-.278-.184-.548-.381-.807-.562a5.263,5.263,0,0,1-7.565-.2,7.685,7.685,0,0,1-1.778-6.733c-.011-.779-3.253-3.177.285-7.585C462.208,132.5,465.875,133.521,466.6,133.565Zm.206,12.567q.66.745,1.322,1.49a8.428,8.428,0,0,0,3.067,2.553c6.052,1.357,4.475-4.224,4.509-4.947.181-1.03,1.507-.116,1.392,1.013.607.309,4.52-2.505,1.765-5.688-.361-.4-.892-1.065-1.392-.891-1.508.527-3.1.6-1.658-.117,3.326-.63,3.4-9.343-4.767-8.377-2.27.774-2.654,2.064-3.294,3.214a1.2,1.2,0,0,1-.943.738c-.839-.235-4.69-3.026-7.875,2.723a4.726,4.726,0,0,0,.676,4.137c.484-.741,2.224-.817,1.883-.218a4.12,4.12,0,0,0-1.206,2.439c-.3,2.963.826,5.291,4.4,5.974a3.639,3.639,0,0,0,2.946-1.041C466.626,147.43,465.991,146.157,466.8,146.132Z"/>
        <path id="Path_48" data-name="Path 48" d="M431.249,189.2a3.348,3.348,0,0,1,2.685-2.415,3.224,3.224,0,0,1,3.491,5.056c1.615,1.82,2.087,3.139,1.1,5.125a4.8,4.8,0,0,1-3.3,2.123,19.509,19.509,0,0,1-2.383-.076,4.622,4.622,0,0,1-3.2,2.078,3.462,3.462,0,0,1-2.29-.839c-1.74-1.454-1.826-2.854-.309-5.273-1.19-2.07-1.007-4.334,1.185-5.347A7.783,7.783,0,0,1,431.249,189.2Zm.415,8.489c.3-.643.895.233,1.362.454a4.189,4.189,0,0,0,4.926-1.664,3.463,3.463,0,0,0-.935-4.08.6.6,0,0,1-.259-.764,2.51,2.51,0,0,0-.177-3.213c-.756-1.173-4.749-1.634-3.934,1.551-.151.832-.726.6-1,.522-1.527-.447-3.623-.445-4.31.991-.567,1.186.537,2.815.623,2.882.594.289.542.9-.3,1.165a3.422,3.422,0,0,0-.983,2.837c1.929,4.01,4.982.752,5.362.416A1.3,1.3,0,0,1,431.664,197.685Z"/>
      </g>
    </g>
  </g>
</svg>
