<svg xmlns="http://www.w3.org/2000/svg" xmlns:xlink="http://www.w3.org/1999/xlink" width="215.89" height="153.551" viewBox="0 0 215.89 153.551">
  <defs>
    <clipPath id="clip-Монтажная_область_1">
      <rect width="215.89" height="153.551"/>
    </clipPath>
  </defs>
  <g id="Монтажная_область_1" data-name="Монтажная область 1" clip-path="url(#clip-Монтажная_область_1)">
    <g id="Background">
      <rect id="Rectangle_1" data-name="Rectangle 1" width="841.89" height="1190.551" fill="none"/>
      <text id="Comics_elements" data-name="Comics elements" transform="translate(242.841 60)" fill="none" font-size="36" font-family="Helvetica" letter-spacing="0.05em"><tspan x="0" y="0">Comics elements</tspan></text>
    </g>
    <g id="Elements">
      <g id="Clouds" transform="translate(-59.789 -111.529) rotate(-11)">
        <path id="Path_30" data-name="Path 30" d="M158.377,216.415c-1.472-2.412-9.815-5.6-9.815-5.6l-.665-2.763S143.738,189.091,124.86,188c-10.021-.577-12.736,6.535-12.736,6.535s-5.109-3.31-9.474-1.162c-1.636.806-4.5,4.075-4.5,4.075s-8.958-3.418-16.269,2.329c-7.795,6.128-3.618,14.909-3.618,14.909s-5.115,4.99-5.771,9.966c-.989,7.5,5.131,13.763,5.131,13.763s-6.674,11.432-2.593,22.187c5.379,14.177,25.527,12.7,25.527,12.7s12.64,7.239,17.362,7.919c15.6,2.247,23.66-11.412,23.66-11.412l3.825.166s11.565,2.088,15.907-12.641c2.059-6.988-3.6-17.967-3.6-17.967S168.025,232.22,158.377,216.415ZM133.52,243.571v8.982c-8.66-1.063-14.027.519-14.027.519-6.68-8.147-21.076-12.587-21.076-12.587,14.214-10.763,9.507-25.12,9.507-25.12s9.721,10.672,20.524,1.632c.664-.555-13.56,11.977,9.01,23.954Z" fill="#fff"/>
        <path id="Path_31" data-name="Path 31" d="M84.419,148.192c-1.6-9.1-10.278-7.476-10.278-7.476-.453-3.182-7-11.353-15.285-4.013,0,0-9.8-7.623-18.586.7a12.42,12.42,0,0,0-2.994,14.659s-7.735,5.989-4.621,13.29c4.5,10.541,13.78,7.208,13.78,7.208s2.15,7.188,9.867,6.949c6.932-.214,7.684-7.236,7.684-7.236s8.307,5.318,13.539,1.757c4.492-3.058,3.48-11.363,3.48-11.363S86.556,160.386,84.419,148.192ZM72.381,161.271s-3.48-.4-5.816,1.081c0,0-4.734-.56-5.813,0-3.53,1.832-3.182,3.66-3.182,3.66a9.194,9.194,0,0,0-8.65-6.824s4.463-6.434,4.492-11.225c0,0,6.238,6.715,11.478-2,0,0,1.164,7.838,8.675,5.656C73.565,151.623,70.462,156.659,72.381,161.271Z" fill="#fff"/>
        <path id="Path_32" data-name="Path 32" d="M169.023,251.1c3.95.99,30.887,5.026,34.184,5.269l4.992,4.067c-1.334.066-29.362-2.932-43.758-7.619-.534-.146-1.07-.283-1.556-.411a29.012,29.012,0,0,1-1.7,9.855c3.6,1.422,7.189,2.98,10.873,4.271a148.8,148.8,0,0,0,23.676,5.9c4.9.856,17.406.891,17.714.851l1.577,2.33c-3.5.51-17.2-.759-20.695-.9-3.847,2.591,30.774,2.591,30.932,2.83.17.256-2.606,2.99-2.606,2.99-4.476-.008-19.946.514-37.425-4.216-4.427-1.224-8.787-2.719-13.111-4.278-4.44-1.6-10.236-3.987-14.617-5.75,0,0-3.088,2.432-4.79,3.484,24.213,14.019,54.451,15.768,58.65,16.213,1.9.2,3.844.026,5.767.036.359,0,.718.072,1.062.108.276.837.085,1.246-.766,1.342-2.952.333-25.03-.769-44.886-7.172-6.363-2.033-20.773-9.009-21.841-9.831l-3.092.871c.854.621,1.446,1.141,2.116,1.525,4.745,2.722,9.469,5.485,14.276,8.093,14.008,7.159,24.322,7.991,23.19,8.825.966,1.411-12.841-.236-29.933-8.794-4.8-2.354-9.491-4.934-14.222-7.429-.705-.372-1.375-.81-2.184-1.29l-3.062,4c2.542,2.863,17.828,12.569,24.886,15.888,18.328,9.1,40.293,12.572,42.559,12.917a4.673,4.673,0,0,1,1.092.211.713.713,0,0,1,.1,1.306c-1.159.458-23.43-2.257-45.107-12.223a151.646,151.646,0,0,1-16.812-9.648c-3.007-1.983-5.821-4.258-8.878-6.517-7.148,5.837-21.75,4.922-28.792.581-2-1.234-3.77-2.812-5.734-4.29-12.845,1.561-32.97-5.259-28.112-27.638a88.483,88.483,0,0,1,4.033-8.678,14.861,14.861,0,0,1,.133-22.683c-2.164-3.769-5.046-7.112-6.956-11.115-1.923-4.029-4.1-7.935-5.647-12.14-1.521-4.127-3.139-8.841-4.7-13.011-.223.048-9.166,4.337-13.786-6.468a5.711,5.711,0,0,1-1.5.437c-6.363,1.125-15.494-4.27-12.285-15.27a17.974,17.974,0,0,1,2.629-4.718,10.559,10.559,0,0,0,1.114-1.707,15.758,15.758,0,0,1,2.493-13.334c2.242-3.127,5.18-4.687,10.084-5.525-.328-1.788-1.209-4.425-1.848-7.965.108.3,3.166,5.739,4.574,8.068,1.726.44,4.825,1.3,6.611,3.14,10.4-8.151,15.705,1.229,16.175,3.793,6.766-1.16,10.651,4.6,11.565,9.172a16.292,16.292,0,0,1-.842,10.2,29.61,29.61,0,0,1-3.157,4.333c.225,6.583-1.958,9.921-6.388,12.464a112.276,112.276,0,0,0,10.887,12.588,55.114,55.114,0,0,0,11.838,7.947,8.589,8.589,0,0,1,6.02-4.322,10.36,10.36,0,0,1,7.57,1.546c.275-.334.542-.653.8-.977a15.064,15.064,0,0,1,11.779-5.761,20.511,20.511,0,0,1,10.451,2.228,33.665,33.665,0,0,1,6.749,4.944c7.919,7.731,7.323,15.192,7.841,15.372,4.07,1.406,8.665,4.7,10.717,7.755a19.568,19.568,0,0,1,3.632,10.615c.11,2.525-.945,8.638-4.79,12.091a9.836,9.836,0,0,1,2.7,5.278c.088.722,27.636,5.373,29.4,5.951l-2.281,1.9c-4.649-.823-9.3-1.616-13.954-2.418l-4.746-.819C167.133,249.85,169.045,250.991,169.023,251.1ZM97.665,267.021a44.179,44.179,0,0,0,4.313,5.3,28.667,28.667,0,0,0,10.153,6.02,39.6,39.6,0,0,0,4.824,1.1c11.906,1.925,15.382-2.2,16.24-3.075-.55-.428-1-.753-1.419-1.106-2.62-2.191-5.324-4.293-7.828-6.609-2.6-2.4-5-5.018-7.495-7.537-.505-.511-1.565-2.279-1.844-1.146.767,2.527.279,2.028-.371,2.049a3.591,3.591,0,0,1-.929-1.715c-.523-1.916-.258-4.146-.844-6.042-.931-3.013-3.9-12.111-14.246-12.079-1.119.024-2.242.044-3.356-.031-.95-.065-3.275,0-2.731-.864.172-.157.288-.329.448-.391a2.287,2.287,0,0,1,.723-.135,11.6,11.6,0,0,0,6.972-3.118,22.611,22.611,0,0,0,3.626-4.447,24.151,24.151,0,0,0,3.653-10.549,20.747,20.747,0,0,0-.794-8.234c-.207-.765-1.531-2.487-.035-2.5,1.143,1.284,2.082,2.408,3.1,3.461a13.642,13.642,0,0,0,5.946,3.992c4.374,1.239,8.34.056,11.934-2.558.71-.517,2.4-2.051,2.657-.817-.943,1.153-1.791,2.042-2.461,3.048-4.785,5.622.044,14.12.415,14.292,5.916,2.755,11.711,5.79,17.917,7.885a13.8,13.8,0,0,0,1.351.3,9.167,9.167,0,0,0-2.264-6.658,6.75,6.75,0,0,0-6.514-2.059c-.27-.811-.025-1.184.69-1.265,7.244-.888,9.978,5.8,9.82,9.259-.065,1.421-.5,1.274.935,1.721,1.187.37,2.372.762,3.58,1.05,1.612.385,3.246.678,5.195,1.078a14.51,14.51,0,0,0-1.531-3.884c-1.07.345-3.023,1.948-2.828.932l2.038-1.919c-.07-1.344-1.352-2.229-2.088-3.442.429-1.025,2.6.888,3.43,2.265,1.88-2.206,6.157-9.611.262-19.526-1.015-1.667-6.934-6.869-9.009-7.24.6,2.35-.068,4.679-.615,4.426-1.945-.263,3.37-5.431-7.125-7.012-1.144-.969,3.763-1.385,5.382-.637-.357-1.187-.728-2.361-1.064-3.545a19.488,19.488,0,0,0-6.5-10.183,26.7,26.7,0,0,0-12.379-6.109,14.842,14.842,0,0,0-8.62,1.246c-1.571.986-3.93,2.353-4.993,4.028,0,0,2.245,2.254.63,2.788-1.288-.955-2.245-1.734-3.269-2.411A7.782,7.782,0,0,0,100.483,196a2.044,2.044,0,0,0-.009,3.016c.284.369.6.711.957,1.125-1.324.847-1.805-.717-2.809-.669l-1.031,1.952-.406-.132.273-2.606c-3.747-2.511-11.258-1.482-14.644,1.969-4.617,3.957-5.693,9.126-3.607,13.44.822,0,3.731-.756,2.954,0a19.619,19.619,0,0,0-3.557,1.565,12.074,12.074,0,0,0-4.4,6.116,14.26,14.26,0,0,0,1.323,11.36,14.559,14.559,0,0,0,6.842,6.744c.985.99.32,1.239-1.116.788-.978-.335-1.928-.748-2.92-1.14-.364.642-6.674,10.491-1.948,22.027,6.056,10.084,19.528,11.669,23.508,10.872a25.5,25.5,0,0,1-1.67-2.534C97.821,269.093,96.246,266.734,97.665,267.021Zm-56.2-115.814c-4.281.631-7.5,4-8.377,8.509a9.813,9.813,0,0,0,4.56,10.791c2.486,1.864,7.211,2.4,9.876.525a10.638,10.638,0,0,1-.926-5.885c.777,4.091,1.787,7.737,6.437,9.341a9.164,9.164,0,0,1-5.183-2.241l-.831.508c2.777,5.883,8.134,7.977,12.548,5.354-.833-2.958-1.96-5.416-2.969-8.88L54.73,170.29c.39-.955,1.818-2.587.584-6.691-2.634-5.939-8.368-3.566-9.008-3.566,1.169-.675,3.618-1.8,5.765-7.618.554-2.419.948-4.877-.6-9.748.79,1.206,2.517,8.121,8.154,7.119,4.362-1.235,5.6-6.162,6.483-8.106-.153,1.262-.346,2.356-.408,3.458a5.875,5.875,0,0,0,7.3,6.121c.561-.13,1.132-.216,2.205-.418-4.027,4.328-3.264,8.391-.565,12.568-.544-.137-3.015-2.564-5.824-1.686-1.342.517-1.659,1.127-.924,2.393,1.778,3.062,4.347,7.208,6.222,10.213.256.242,3.536-1.871,4.522-3.74a11.963,11.963,0,0,0,1.56-6.471,7.189,7.189,0,0,1-3.868.979c-.042-.13-.593-.251.153-.52A6.308,6.308,0,0,0,80,162.19l-.1-2.08c.375-.586,1.165.62,1.162,1.233,5.524-5.323,3.283-14.318.008-17.709a7.29,7.29,0,0,0-6.727-2.242c.224,1.926-.544,4.545-1.263,4.3a8.128,8.128,0,0,0-.436-4.054,3.8,3.8,0,0,0-2.152,1.091c-.375.156-.447-.053-.344-.655.281-.873,1.594-1.618,2.275-1.967.158-2.306-6-10.335-13.221-2.657a28.794,28.794,0,0,1,2.439,6.286c-.479-.415-3.362-9.957-13.251-9.638a13.1,13.1,0,0,0-9.26,5.621c-2.562,3.393-2.584,7.185-1.655,11.194a14.33,14.33,0,0,1,4.723-1.79,7.563,7.563,0,0,1,6.329-3.3c-2.508.785-8.8,3.611-4.873,11.193A6.883,6.883,0,0,1,41.464,151.207ZM159.883,251.384a3.976,3.976,0,0,0-.585-.368q-4.617-1.709-9.239-3.4c-.465-.172-.929-.351-1.382-.552-3.451-1.527-6.929-3-10.334-4.621-1.521-.726-2.737-.014-3.975,1.13a2.711,2.711,0,0,0-.309,3.6,10.39,10.39,0,0,0,2.678,2.777q4.218,2.733,8.652,5.133a94.374,94.374,0,0,0,12.7,5.746C158.959,261.141,160.872,252.262,159.883,251.384Zm-37.043,2.208c.592.511.859.77,1.155.991,3.537,2.635,7.058,5.292,10.625,7.886,2.663,1.937,9.369,6.462,10.155,6.26,5.866,1,9.859-2.078,10.266-3.658-.805-.474-1.262-.77-1.742-1.023-3.565-1.881-16.963-8.791-22.908-10.082C128.049,253.207,121.9,252.6,122.84,253.592ZM104.2,236.707c.884.984,1.6,1.929,2.46,2.713,4.321,3.928,8.768,7.721,12.979,11.762a30.415,30.415,0,0,1,12,.736c-9.714-5.7-16.321-11.718-24.562-19.7Zm4.842-10.67a13.765,13.765,0,0,0-.474,2.115,1.839,1.839,0,0,0,.378,1.3c2.009,1.942,4.02,3.89,6.141,5.707,4.925,4.22,10.5,7.538,15.817,11.21a8.608,8.608,0,0,0,1.047.555c-.313-3.479,1.572-5.226,3.287-5.921C126.163,236.622,117.249,232.04,109.039,226.037ZM79.533,200.325c-.957-1.5-13.645-21.422-15.547-26.753a8.821,8.821,0,0,1-1.626,4.735c1.863,4.4,3.92,10.1,6.457,14.176,1.313,2.109,2.508,4.3,3.916,6.338,1.433,2.077,2.827,3.713,4.429,5.789A8.363,8.363,0,0,1,79.533,200.325ZM88.258,196c-.154-.179-.392-.455-.63-.733-2.5-2.924-5.073-5.8-7.5-8.787-2.338-2.884-4.529-5.886-6.78-8.841-.454-.6-.808-1.016-.808-1.016a11.58,11.58,0,0,1-5.5-1.992c-.9-.548,9.179,17.059,14.943,23.621A15.505,15.505,0,0,1,88.258,196ZM71.623,160.845a10.872,10.872,0,0,1,.634-8.5c-2.138.494-6.727-.112-7.667-4.807a5.67,5.67,0,0,1-3.131,3.385,7.611,7.611,0,0,1-5.744.17c1.647,3.712,3.039,6.848,4.488,10.112,1.5-.629,2.659-.4,4.379.237-.919-2.681-1.906-4.808-3.311-8.91,2.11,3.4,3.268,5.967,5.443,9.286C68.315,160.467,69.26,160.069,71.623,160.845Zm38.023,57.076c-1.084-.924.906,2.9.157,6.062a67.754,67.754,0,0,0,13.642,7.117,9.045,9.045,0,0,0,1.415.43c-1.479-3.488-1.289-6.888-.677-10.4C118.661,222.609,114.028,221.2,109.646,217.921Zm5.242,35.549c5.977,8.524,13.088,14.978,20.888,21.14.649-.627,1.215-1.115,1.71-1.667.519-.578.97-1.216,1.525-1.923A237.1,237.1,0,0,1,114.888,253.47ZM61.459,163.479c.807,1.593,1.55,3.086,2.316,4.567.8,1.54,1.579,3.091,2.434,4.6.776.927,5.75,2.8,5.45,1.97-1.73-3.295-3.682-6.585-5.475-9.832A3.654,3.654,0,0,0,61.459,163.479Zm-7.539-9.006c1.27,3.327,1.983,6.379,3.527,9.645a4.672,4.672,0,0,1,1.188-2.016c-1.676-4.31-3.2-7.586-4.782-11.659-.337,3.294-1.964,5.872-3.929,8.317a6.3,6.3,0,0,1,4.347,1.165C54.168,158.377,53.966,157.28,53.92,154.473Zm5.587,10.373a2.02,2.02,0,0,0-1.169,2.406,51.793,51.793,0,0,0,3.121,9.572c1.763-1.372,1.763-4.567,1.763-4.567-.782-1.4-2.271-4.528-2.946-5.987C60.053,165.79,59.774,165.337,59.507,164.846Zm7.531,29.187c1.179,3.668,7.022,14.128,8.984,15.469a6.5,6.5,0,0,1,.258-2.788C73.956,204.915,70.171,199.406,67.038,194.033Zm22.646,1.558c.073-.127,3.1.074,3.173-.053-2.87-1.5-10.823-8.837-10.979-8.671C83.562,188.42,89.168,195.376,89.684,195.591Z"/>
        <path id="Path_33" data-name="Path 33" d="M93.354,247.834c1.312,0-.084,1.615-.412,2.282A6.45,6.45,0,0,0,94.5,258c6.049,3.743,9.35-.3,10.4-1.164.747-.616,2.079-3.48,2.386-2.533-.153,1.757-1.62,3.926-4.1,6.307,2.3,2.512,4.068,2.448,7.271-.317,1.181-.13-1.159,4.444-5.446,3.083a5.274,5.274,0,0,1-3.292-2.307c-2.245.525-8.012,1.39-10.625-3.152C89.539,254.86,90.491,250.936,93.354,247.834Z"/>
        <path id="Path_34" data-name="Path 34" d="M134.3,209.572c1.249,5.326,1.374,6.41.444,7.138-1.22.62-1.422-1.914-1.6-3.119a10.291,10.291,0,0,0-2.85-5.928,6.353,6.353,0,0,0-6.675-1.647c-5.7,1.5-4.5,5.907-5.627,5.851-1.449-3.437,1.791-7.933,7.534-7.928a9.465,9.465,0,0,1,7.524,3.763c.236.316,3.871-.6,7.072,1.888,3.619,3,3.286,9.736,1.839,8.591C141.716,217.474,142.23,208.861,134.3,209.572Z"/>
        <path id="Path_35" data-name="Path 35" d="M98.111,211.691a17.673,17.673,0,0,1-2.135-.012c-4.416-.537-8.423,3.65-7.3,8.832a17.6,17.6,0,0,0,.978,2.516c1.915-1.206,3.182-3.254,5.617-2.843a3.48,3.48,0,0,1,1.361.452,8.808,8.808,0,0,0-5.549,3.761c-1.414,2.085-1.244,4.316-.5,6.921-.493-.336-.792-.43-.893-.626a7.218,7.218,0,0,1-.988-4.834,2.976,2.976,0,0,0-.5-2.245c-1.212-2.176-1.878-4.464-1.022-6.963,1.705-4.983,5.847-6.566,10.354-5.538a2.894,2.894,0,0,1,.622.311Z"/>
      </g>
    </g>
  </g>
</svg>
